<svg width="17" height="17" viewBox="0 0 17 17" fill="none" xmlns="http://www.w3.org/2000/svg">
<circle cx="8.5" cy="8.5" r="8" fill="#BBFFEF" stroke="#3F3F3F"/>
<path d="M11.6627 5.89786L11.5113 5.84256C11.5132 5.72367 11.4971 5.58265 11.4632 5.41948C11.4338 5.25799 11.3736 5.09563 11.2824 4.93237C11.1976 4.76621 11.0754 4.6098 10.9158 4.46313C10.7609 4.31814 10.5573 4.19956 10.305 4.1074C10.0803 4.0253 9.86822 3.9868 9.6688 3.99193C9.46939 3.99705 9.28744 4.03974 9.12295 4.12C8.96305 4.20194 8.82229 4.31687 8.70067 4.46478C8.57905 4.61269 8.48054 4.78983 8.40514 4.99622C8.28449 5.32643 8.2606 5.6764 8.33346 6.04612C8.41258 6.41293 8.53841 6.7942 8.71093 7.18994C8.88345 7.58567 9.07891 7.98979 9.2973 8.40228C9.51568 8.81477 9.70695 9.23035 9.8711 9.64902C10.0352 10.0677 10.1454 10.4848 10.2015 10.9004C10.2638 11.3131 10.2221 11.7189 10.0764 12.1179C9.96744 12.416 9.80494 12.6972 9.58886 12.9613C9.37905 13.2226 9.1228 13.4331 8.82011 13.5928C8.51742 13.7525 8.16873 13.8461 7.77405 13.8734C7.38105 13.8962 6.95064 13.8221 6.48284 13.6512C6.22142 13.5557 5.98068 13.4391 5.76063 13.3016C5.54348 13.1702 5.34658 13.0333 5.16992 12.8908C4.99952 12.7454 4.84914 12.602 4.71878 12.4608C4.593 12.3213 4.49224 12.1987 4.41647 12.0931L5.13017 10.6305L5.30216 10.6934C5.27385 10.9273 5.281 11.1639 5.32361 11.403C5.36789 11.6375 5.44493 11.8606 5.55474 12.0723C5.67082 12.281 5.81988 12.4706 6.00192 12.6411C6.18564 12.807 6.40591 12.9369 6.66275 13.0307C6.89665 13.1162 7.11789 13.158 7.32648 13.1562C7.54133 13.1516 7.73787 13.1116 7.91612 13.0364C8.09604 12.9566 8.25223 12.8421 8.3847 12.6929C8.52175 12.5455 8.62798 12.3685 8.70339 12.1621C8.80895 11.8732 8.8534 11.5879 8.83672 11.3063C8.82172 11.0201 8.76729 10.7351 8.67344 10.4513C8.58418 10.1692 8.46718 9.88468 8.32244 9.59786C8.18229 9.31273 8.03526 9.02507 7.88134 8.73491C7.72911 8.44016 7.58313 8.1425 7.44342 7.84192C7.3083 7.54303 7.19884 7.23791 7.11504 6.92658C7.03751 6.61233 6.99794 6.29377 6.99635 5.97088C6.99643 5.6434 7.0593 5.30768 7.18497 4.9637C7.31735 4.60139 7.50511 4.30089 7.74827 4.06222C7.99768 3.82065 8.27475 3.63856 8.57947 3.51595C8.88877 3.39503 9.21029 3.33315 9.54403 3.33032C9.87777 3.32749 10.2006 3.38304 10.5124 3.49699C10.7418 3.58077 10.946 3.67619 11.1252 3.78326C11.3045 3.89032 11.4605 3.99673 11.5934 4.10248C11.7309 4.2099 11.8478 4.30978 11.944 4.40212C12.0403 4.49446 12.1192 4.57008 12.1809 4.629L11.6627 5.89786Z" fill="#3F3F3F"/>
</svg>
