<svg width="96" height="12" viewBox="0 0 96 12" fill="none" xmlns="http://www.w3.org/2000/svg">
<path d="M4.557 11.21C3.843 11.21 3.199 11.0887 2.625 10.846C2.05567 10.6033 1.58433 10.258 1.211 9.81C0.842333 9.35733 0.602 8.823 0.49 8.207L1.778 8.004C1.94133 8.63867 2.27967 9.13567 2.793 9.495C3.311 9.84967 3.92 10.027 4.62 10.027C5.07267 10.027 5.481 9.957 5.845 9.817C6.21367 9.67233 6.50533 9.467 6.72 9.201C6.93467 8.935 7.042 8.62 7.042 8.256C7.042 8.032 7.00233 7.84067 6.923 7.682C6.84833 7.51867 6.74333 7.381 6.608 7.269C6.47733 7.15233 6.328 7.05433 6.16 6.975C5.992 6.89567 5.817 6.83033 5.635 6.779L3.066 6.016C2.786 5.932 2.51533 5.827 2.254 5.701C1.99267 5.57033 1.75933 5.40933 1.554 5.218C1.34867 5.022 1.18533 4.78867 1.064 4.518C0.942667 4.24267 0.882 3.91833 0.882 3.545C0.882 2.94767 1.036 2.439 1.344 2.019C1.65667 1.59433 2.079 1.27 2.611 1.046C3.143 0.822 3.74267 0.712333 4.41 0.716999C5.08667 0.721666 5.691 0.843 6.223 1.081C6.75967 1.31433 7.203 1.65033 7.553 2.089C7.90767 2.52767 8.14567 3.05267 8.267 3.664L6.944 3.895C6.874 3.48433 6.71767 3.132 6.475 2.838C6.237 2.53933 5.93833 2.31067 5.579 2.152C5.21967 1.98867 4.82533 1.90467 4.396 1.9C3.98533 1.89533 3.61433 1.96067 3.283 2.096C2.95167 2.23133 2.688 2.42033 2.492 2.663C2.296 2.901 2.198 3.17633 2.198 3.489C2.198 3.797 2.28667 4.04667 2.464 4.238C2.64133 4.42467 2.85833 4.574 3.115 4.686C3.37633 4.79333 3.63067 4.882 3.878 4.952L5.796 5.505C6.01533 5.56567 6.26733 5.64967 6.552 5.757C6.84133 5.86433 7.12133 6.016 7.392 6.212C7.66267 6.40333 7.88667 6.66 8.064 6.982C8.24133 7.29933 8.33 7.70067 8.33 8.186C8.33 8.67133 8.232 9.103 8.036 9.481C7.84467 9.859 7.57633 10.1763 7.231 10.433C6.88567 10.685 6.48433 10.8763 6.027 11.007C5.56967 11.1423 5.07967 11.21 4.557 11.21ZM9.93836 2.103V0.815H11.1844V2.103H9.93836ZM9.93836 11V3.44H11.1844V11H9.93836ZM12.5847 11V10.776L17.1697 4.574H12.9627V3.44H19.1787V3.678L14.6007 9.866H18.9407V11H12.5847ZM23.4376 11.21C22.6956 11.21 22.047 11.0467 21.4916 10.72C20.941 10.3887 20.5116 9.929 20.2036 9.341C19.8956 8.74833 19.7416 8.05767 19.7416 7.269C19.7416 6.443 19.8933 5.729 20.1966 5.127C20.5 4.52033 20.9223 4.05367 21.4636 3.727C22.0096 3.39567 22.649 3.23 23.3816 3.23C24.1423 3.23 24.7886 3.405 25.3206 3.755C25.8573 4.105 26.2586 4.60433 26.5246 5.253C26.7953 5.90167 26.912 6.674 26.8746 7.57H25.6146V7.122C25.6006 6.19333 25.4116 5.50033 25.0476 5.043C24.6836 4.581 24.1423 4.35 23.4236 4.35C22.6536 4.35 22.068 4.59733 21.6666 5.092C21.2653 5.58667 21.0646 6.296 21.0646 7.22C21.0646 8.11133 21.2653 8.802 21.6666 9.292C22.068 9.782 22.6396 10.027 23.3816 10.027C23.881 10.027 24.315 9.91267 24.6836 9.684C25.0523 9.45533 25.3416 9.12633 25.5516 8.697L26.7486 9.11C26.4546 9.77733 26.0113 10.2953 25.4186 10.664C24.8306 11.028 24.1703 11.21 23.4376 11.21ZM20.6446 7.57V6.569H26.2306V7.57H20.6446ZM34.4209 11.21C33.6555 11.21 33.0045 11.0397 32.4679 10.699C31.9359 10.3537 31.5299 9.88 31.2499 9.278C30.9699 8.676 30.8252 7.99 30.8159 7.22C30.8252 6.43133 30.9722 5.73833 31.2569 5.141C31.5462 4.539 31.9592 4.07 32.4959 3.734C33.0325 3.398 33.6789 3.23 34.4349 3.23C35.2329 3.23 35.9189 3.426 36.4929 3.818C37.0715 4.21 37.4589 4.74667 37.6549 5.428L36.4229 5.799C36.2642 5.36033 36.0052 5.01967 35.6459 4.777C35.2912 4.53433 34.8829 4.413 34.4209 4.413C33.9029 4.413 33.4759 4.53433 33.1399 4.777C32.8039 5.015 32.5542 5.34633 32.3909 5.771C32.2275 6.191 32.1435 6.674 32.1389 7.22C32.1482 8.06 32.3419 8.739 32.7199 9.257C33.1025 9.77033 33.6695 10.027 34.4209 10.027C34.9155 10.027 35.3262 9.915 35.6529 9.691C35.9795 9.46233 36.2269 9.13333 36.3949 8.704L37.6549 9.033C37.3935 9.73767 36.9852 10.2767 36.4299 10.65C35.8745 11.0233 35.2049 11.21 34.4209 11.21ZM41.1642 11.21C40.5995 11.21 40.1258 11.1073 39.7432 10.902C39.3652 10.692 39.0782 10.4167 38.8822 10.076C38.6908 9.73533 38.5952 9.362 38.5952 8.956C38.5952 8.55933 38.6698 8.21633 38.8192 7.927C38.9732 7.633 39.1878 7.39033 39.4632 7.199C39.7385 7.003 40.0675 6.849 40.4502 6.737C40.8095 6.639 41.2108 6.555 41.6542 6.485C42.1022 6.41033 42.5548 6.34267 43.0122 6.282C43.4695 6.22133 43.8965 6.163 44.2932 6.107L43.8452 6.366C43.8592 5.694 43.7238 5.197 43.4392 4.875C43.1592 4.553 42.6738 4.392 41.9832 4.392C41.5258 4.392 41.1245 4.497 40.7792 4.707C40.4385 4.91233 40.1982 5.24833 40.0582 5.715L38.8752 5.358C39.0572 4.69533 39.4095 4.175 39.9322 3.797C40.4548 3.419 41.1432 3.23 41.9972 3.23C42.6832 3.23 43.2712 3.35367 43.7612 3.601C44.2558 3.84367 44.6105 4.21233 44.8252 4.707C44.9325 4.94033 45.0002 5.19467 45.0282 5.47C45.0562 5.74067 45.0702 6.02533 45.0702 6.324V11H43.9642V9.187L44.2232 9.355C43.9385 9.96633 43.5395 10.4283 43.0262 10.741C42.5175 11.0537 41.8968 11.21 41.1642 11.21ZM41.3532 10.167C41.8012 10.167 42.1885 10.0877 42.5152 9.929C42.8465 9.76567 43.1125 9.55333 43.3132 9.292C43.5138 9.026 43.6445 8.73667 43.7052 8.424C43.7752 8.19067 43.8125 7.93167 43.8172 7.647C43.8265 7.35767 43.8312 7.136 43.8312 6.982L44.2652 7.171C43.8592 7.227 43.4602 7.28067 43.0682 7.332C42.6762 7.38333 42.3052 7.43933 41.9552 7.5C41.6052 7.556 41.2902 7.62367 41.0102 7.703C40.8048 7.76833 40.6112 7.85233 40.4292 7.955C40.2518 8.05767 40.1072 8.19067 39.9952 8.354C39.8878 8.51267 39.8342 8.711 39.8342 8.949C39.8342 9.15433 39.8855 9.35033 39.9882 9.537C40.0955 9.72367 40.2588 9.87533 40.4782 9.992C40.7022 10.1087 40.9938 10.167 41.3532 10.167ZM47.0302 11V0.71H48.2762V11H47.0302ZM53.5615 11.21C52.7962 11.21 52.1452 11.0397 51.6085 10.699C51.0765 10.3537 50.6705 9.88 50.3905 9.278C50.1105 8.676 49.9658 7.99 49.9565 7.22C49.9658 6.43133 50.1128 5.73833 50.3975 5.141C50.6868 4.539 51.0998 4.07 51.6365 3.734C52.1732 3.398 52.8195 3.23 53.5755 3.23C54.3735 3.23 55.0595 3.426 55.6335 3.818C56.2122 4.21 56.5995 4.74667 56.7955 5.428L55.5635 5.799C55.4048 5.36033 55.1458 5.01967 54.7865 4.777C54.4318 4.53433 54.0235 4.413 53.5615 4.413C53.0435 4.413 52.6165 4.53433 52.2805 4.777C51.9445 5.015 51.6948 5.34633 51.5315 5.771C51.3682 6.191 51.2842 6.674 51.2795 7.22C51.2888 8.06 51.4825 8.739 51.8605 9.257C52.2432 9.77033 52.8102 10.027 53.5615 10.027C54.0562 10.027 54.4668 9.915 54.7935 9.691C55.1202 9.46233 55.3675 9.13333 55.5355 8.704L56.7955 9.033C56.5342 9.73767 56.1258 10.2767 55.5705 10.65C55.0152 11.0233 54.3455 11.21 53.5615 11.21ZM61.0941 11.196C60.6088 11.196 60.1911 11.119 59.8411 10.965C59.4958 10.811 59.2088 10.6057 58.9801 10.349C58.7515 10.0923 58.5718 9.80767 58.4411 9.495C58.3105 9.18233 58.2171 8.86267 58.1611 8.536C58.1098 8.20933 58.0841 7.90367 58.0841 7.619V3.44H59.3441V7.227C59.3441 7.58167 59.3768 7.92467 59.4421 8.256C59.5075 8.58733 59.6171 8.886 59.7711 9.152C59.9298 9.418 60.1398 9.628 60.4011 9.782C60.6671 9.936 60.9985 10.013 61.3951 10.013C61.7078 10.013 61.9925 9.95933 62.2491 9.852C62.5058 9.74467 62.7251 9.586 62.9071 9.376C63.0891 9.16133 63.2291 8.89067 63.3271 8.564C63.4251 8.23733 63.4741 7.857 63.4741 7.423L64.2931 7.675C64.2931 8.403 64.1601 9.03067 63.8941 9.558C63.6328 10.0853 63.2618 10.4913 62.7811 10.776C62.3051 11.056 61.7428 11.196 61.0941 11.196ZM63.6141 11V8.977H63.4741V3.44H64.7271V11H63.6141ZM66.827 11V0.71H68.073V11H66.827ZM72.3224 11.21C71.7577 11.21 71.284 11.1073 70.9014 10.902C70.5234 10.692 70.2364 10.4167 70.0404 10.076C69.849 9.73533 69.7534 9.362 69.7534 8.956C69.7534 8.55933 69.828 8.21633 69.9774 7.927C70.1314 7.633 70.346 7.39033 70.6214 7.199C70.8967 7.003 71.2257 6.849 71.6084 6.737C71.9677 6.639 72.369 6.555 72.8124 6.485C73.2604 6.41033 73.713 6.34267 74.1704 6.282C74.6277 6.22133 75.0547 6.163 75.4514 6.107L75.0034 6.366C75.0174 5.694 74.882 5.197 74.5974 4.875C74.3174 4.553 73.832 4.392 73.1414 4.392C72.684 4.392 72.2827 4.497 71.9374 4.707C71.5967 4.91233 71.3564 5.24833 71.2164 5.715L70.0334 5.358C70.2154 4.69533 70.5677 4.175 71.0904 3.797C71.613 3.419 72.3014 3.23 73.1554 3.23C73.8414 3.23 74.4294 3.35367 74.9194 3.601C75.414 3.84367 75.7687 4.21233 75.9834 4.707C76.0907 4.94033 76.1584 5.19467 76.1864 5.47C76.2144 5.74067 76.2284 6.02533 76.2284 6.324V11H75.1224V9.187L75.3814 9.355C75.0967 9.96633 74.6977 10.4283 74.1844 10.741C73.6757 11.0537 73.055 11.21 72.3224 11.21ZM72.5114 10.167C72.9594 10.167 73.3467 10.0877 73.6734 9.929C74.0047 9.76567 74.2707 9.55333 74.4714 9.292C74.672 9.026 74.8027 8.73667 74.8634 8.424C74.9334 8.19067 74.9707 7.93167 74.9754 7.647C74.9847 7.35767 74.9894 7.136 74.9894 6.982L75.4234 7.171C75.0174 7.227 74.6184 7.28067 74.2264 7.332C73.8344 7.38333 73.4634 7.43933 73.1134 7.5C72.7634 7.556 72.4484 7.62367 72.1684 7.703C71.963 7.76833 71.7694 7.85233 71.5874 7.955C71.41 8.05767 71.2654 8.19067 71.1534 8.354C71.046 8.51267 70.9924 8.711 70.9924 8.949C70.9924 9.15433 71.0437 9.35033 71.1464 9.537C71.2537 9.72367 71.417 9.87533 71.6364 9.992C71.8604 10.1087 72.152 10.167 72.5114 10.167ZM82.2694 11C81.8214 11.0887 81.378 11.1237 80.9394 11.105C80.5054 11.091 80.118 11.0047 79.7774 10.846C79.4367 10.6827 79.1777 10.4307 79.0004 10.09C78.851 9.79133 78.7694 9.49033 78.7554 9.187C78.746 8.879 78.7414 8.53133 78.7414 8.144V1.34H79.9874V8.088C79.9874 8.396 79.9897 8.65967 79.9944 8.879C80.0037 9.09833 80.0527 9.28733 80.1414 9.446C80.3094 9.74467 80.5754 9.91967 80.9394 9.971C81.308 10.0223 81.7514 10.0083 82.2694 9.929V11ZM77.2084 4.469V3.44H82.2694V4.469H77.2084ZM86.7098 11.21C85.9584 11.21 85.3098 11.0397 84.7638 10.699C84.2224 10.3583 83.8048 9.887 83.5108 9.285C83.2168 8.683 83.0698 7.99233 83.0698 7.213C83.0698 6.41967 83.2191 5.72433 83.5178 5.127C83.8164 4.52967 84.2388 4.06533 84.7848 3.734C85.3308 3.398 85.9724 3.23 86.7098 3.23C87.4658 3.23 88.1168 3.40033 88.6628 3.741C89.2088 4.077 89.6264 4.546 89.9158 5.148C90.2098 5.74533 90.3568 6.43367 90.3568 7.213C90.3568 8.00167 90.2098 8.697 89.9158 9.299C89.6218 9.89633 89.2018 10.3653 88.6558 10.706C88.1098 11.042 87.4611 11.21 86.7098 11.21ZM86.7098 10.027C87.4938 10.027 88.0771 9.76567 88.4598 9.243C88.8424 8.72033 89.0338 8.04367 89.0338 7.213C89.0338 6.359 88.8401 5.68 88.4528 5.176C88.0654 4.66733 87.4844 4.413 86.7098 4.413C86.1824 4.413 85.7484 4.532 85.4078 4.77C85.0671 5.008 84.8128 5.337 84.6448 5.757C84.4768 6.177 84.3928 6.66233 84.3928 7.213C84.3928 8.06233 84.5888 8.74367 84.9808 9.257C85.3728 9.77033 85.9491 10.027 86.7098 10.027ZM91.898 11V3.44H93.011V5.267L92.829 5.029C92.9176 4.79567 93.032 4.581 93.172 4.385C93.3166 4.189 93.4776 4.028 93.655 3.902C93.851 3.74333 94.0726 3.622 94.32 3.538C94.5673 3.454 94.8193 3.405 95.076 3.391C95.3326 3.37233 95.573 3.38867 95.797 3.44V4.609C95.5356 4.539 95.2486 4.52033 94.936 4.553C94.6233 4.58567 94.334 4.7 94.068 4.896C93.8253 5.06867 93.6363 5.27867 93.501 5.526C93.3703 5.77333 93.2793 6.04167 93.228 6.331C93.1766 6.61567 93.151 6.90733 93.151 7.206V11H91.898Z" fill="#3F3F3F"/>
</svg>
